<svg version="1.1" id="Layer_1" xmlns="http://www.w3.org/2000/svg" xmlns:xlink="http://www.w3.org/1999/xlink" x="0px" y="0px"
	 width="100%" viewBox="0 0 1024 336" enable-background="new 0 0 1024 336" xml:space="preserve">
<path fill="#000000" opacity="1.000000" stroke="none" 
	d="
M808.580322,190.498123 
	C805.512634,198.290771 802.499146,205.693069 799.727051,213.184647 
	C798.598755,216.233688 797.036194,217.596451 793.536560,217.549606 
	C780.333923,217.372879 780.366272,217.491913 775.475281,204.963226 
	C771.023987,193.560730 766.487610,182.191437 761.065002,171.014847 
	C761.065002,184.438354 761.071960,197.861847 761.062622,211.285355 
	C761.056458,220.105927 760.819214,220.338974 752.201172,220.340042 
	C748.703247,220.340469 745.200317,220.214676 741.708679,220.360809 
	C737.875549,220.521255 736.428406,218.990829 736.466553,215.047897 
	C736.639221,197.226639 736.631836,179.402802 736.567139,161.580353 
	C736.522461,149.259186 736.188416,136.938980 736.157776,124.617897 
	C736.139648,117.344795 736.893188,116.752213 744.242920,116.727066 
	C749.073364,116.710541 753.919434,116.960030 758.729736,116.647438 
	C762.904114,116.376167 765.053345,118.051270 766.575623,121.868851 
	C773.172363,138.411942 780.002930,154.861832 786.761414,171.340302 
	C787.378723,172.845276 788.088074,174.312500 788.797241,175.891937 
	C791.094849,174.973557 791.142639,172.926910 791.784363,171.355530 
	C798.455444,155.020294 805.204590,138.714233 811.596985,122.269806 
	C813.271484,117.962120 815.650818,116.363419 820.162170,116.638603 
	C825.638733,116.972672 831.152527,116.806015 836.647095,116.698006 
	C840.373413,116.624756 842.226685,118.160088 842.223267,121.986427 
	C842.195740,153.134720 842.191895,184.283066 842.217896,215.431366 
	C842.220947,219.103455 840.381836,220.438705 836.907654,220.356918 
	C832.412781,220.251068 827.904358,220.150543 823.418823,220.380356 
	C818.994263,220.607040 817.593384,218.623810 817.632141,214.423172 
	C817.768860,199.607285 817.685303,184.789337 816.854248,169.712509 
	C814.146667,176.522903 811.439148,183.333298 808.580322,190.498123 
z"/>
<path fill="#000000" opacity="1.000000" stroke="none" 
	d="
M583.379028,172.758392 
	C596.273010,193.365936 586.293640,215.409607 562.579651,219.227341 
	C548.177734,221.545944 533.641724,220.165161 519.171082,220.271240 
	C502.197815,220.395691 504.768616,222.390823 504.691589,205.711411 
	C504.566986,178.716202 504.652222,151.719986 504.661560,124.724205 
	C504.664246,116.958160 504.882202,116.735077 512.417969,116.722298 
	C524.416077,116.701935 536.424622,116.396828 548.409363,116.795708 
	C559.744934,117.172989 570.043457,120.416504 577.250000,130.123947 
	C583.489929,138.529419 583.624390,154.669144 573.388977,161.584625 
	C572.759216,162.010132 572.338196,162.744675 571.550537,163.642746 
	C576.182617,165.962769 580.293457,168.440216 583.379028,172.758392 
M550.191895,198.917297 
	C550.855652,198.878784 551.525208,198.883743 552.182190,198.795105 
	C559.452576,197.814377 562.924255,194.777451 563.000427,189.352951 
	C563.072937,184.185822 559.818176,181.452652 552.628906,180.118668 
	C546.341125,178.951904 540.029236,179.658066 533.732727,179.415054 
	C530.907349,179.306030 529.915833,180.778503 529.966431,183.418594 
	C530.036499,187.074310 530.079407,190.735947 529.950317,194.388550 
	C529.827026,197.878342 531.483215,199.096970 534.798523,199.002289 
	C539.615601,198.864731 544.439148,198.951294 550.191895,198.917297 
M554.024841,150.334503 
	C555.640808,143.359085 554.074768,140.612869 547.109497,139.727524 
	C542.545471,139.147400 537.866272,139.464966 533.238403,139.399307 
	C531.259338,139.371216 530.355103,140.347031 530.014038,142.346756 
	C528.327881,152.231018 529.759521,154.026138 539.618896,154.018356 
	C541.935669,154.016525 544.252502,153.992447 546.569275,153.987579 
	C549.337341,153.981766 551.809570,153.289108 554.024841,150.334503 
z"/>
<path fill="#000000" opacity="1.000000" stroke="none" 
	d="
M435.995544,113.677414 
	C458.287872,114.293404 474.666992,124.186150 483.932129,143.813629 
	C493.314545,163.689651 490.630157,182.777863 477.463348,200.661423 
	C459.717133,224.764862 419.700836,226.975861 398.428711,206.059097 
	C375.950531,183.956497 376.527679,146.521713 400.545685,126.056824 
	C410.426727,117.637566 422.182404,113.073784 435.995544,113.677414 
M432.153046,195.541107 
	C435.145111,195.692017 438.123932,195.860870 441.091888,195.137314 
	C451.293457,192.650223 457.620026,186.050323 460.444244,176.219711 
	C463.544220,165.429077 461.833557,155.261276 454.179596,146.823532 
	C442.432068,133.873047 422.872070,136.263107 413.838531,151.222458 
	C404.581787,166.551361 409.740509,189.813065 432.153046,195.541107 
z"/>
<path fill="#000000" opacity="1.000000" stroke="none" 
	d="
M676.217651,155.785065 
	C683.683716,155.787079 690.680542,155.854584 697.675354,155.762527 
	C701.436890,155.713013 703.234192,157.329041 703.156433,161.134506 
	C703.078247,164.964020 703.160767,168.796555 703.137573,172.627533 
	C703.099915,178.854340 701.908752,179.876297 695.822083,179.697037 
	C688.832764,179.491196 681.833923,179.610596 674.844788,179.400742 
	C671.424072,179.298019 670.137268,180.545929 670.216614,184.054520 
	C670.529358,197.886047 668.375793,195.925034 682.074707,196.040283 
	C692.901184,196.131363 703.729553,196.129150 714.555847,196.033508 
	C718.833679,195.995712 721.114136,197.197052 720.578064,202.126907 
	C720.131653,206.232559 720.463684,210.435745 720.616699,214.589630 
	C720.739380,217.917664 719.489624,219.444275 715.983826,219.432220 
	C693.330322,219.354309 670.676270,219.355423 648.022766,219.422455 
	C644.781128,219.432037 643.634521,218.096924 643.640503,214.947708 
	C643.700012,183.632339 643.700134,152.316788 643.664856,121.001343 
	C643.660706,117.356819 645.436768,115.914948 648.886719,115.915871 
	C671.040710,115.921768 693.194763,115.918465 715.348633,115.872772 
	C719.305298,115.864609 721.164917,117.640602 721.063721,121.638786 
	C720.966797,125.467224 721.108459,129.301147 721.052979,133.131332 
	C720.965881,139.152588 719.999634,140.168045 714.083435,140.187729 
	C701.424133,140.229874 688.760681,140.368484 676.107056,140.093872 
	C671.483215,139.993546 669.635681,141.512894 670.239624,146.082825 
	C670.412659,147.391754 670.391602,148.761597 670.224915,150.073715 
	C669.683594,154.335724 671.229614,156.468491 676.217651,155.785065 
z"/>
<path fill="#000000" opacity="1.000000" stroke="none" 
	d="
M367.104340,145.999985 
	C366.736786,161.475601 367.812653,176.469467 366.368561,191.434769 
	C364.767609,208.025269 352.138672,219.767059 335.517334,220.403214 
	C322.059753,220.918304 310.692291,216.796310 301.471436,206.825027 
	C298.949524,204.097900 298.306854,201.729172 300.649139,198.512146 
	C303.191925,195.019760 305.445496,191.291885 307.554230,187.515411 
	C309.639557,183.780731 311.827942,183.291122 314.897095,186.402878 
	C317.832336,189.378845 321.083221,191.981110 325.012299,193.597092 
	C334.196869,197.374588 339.755615,193.771942 339.775940,183.856979 
	C339.817627,163.532822 339.742584,143.208450 339.742950,122.884178 
	C339.743073,116.296234 340.322540,115.736046 346.865875,115.708443 
	C351.696930,115.688065 356.530029,115.799805 361.358856,115.696808 
	C365.434937,115.609863 367.088409,117.666626 367.084625,121.510727 
	C367.076721,129.507126 367.094574,137.503571 367.104340,145.999985 
z"/>
<path fill="#000000" opacity="1.000000" stroke="none" 
	d="
M869.951233,115.598259 
	C871.937683,115.599243 873.442017,115.677460 874.936340,115.588158 
	C878.578979,115.370445 880.114258,117.168510 880.067078,120.671059 
	C879.775085,142.327377 879.501160,163.983963 879.214478,185.640366 
	C879.174255,188.678436 877.643372,190.013443 874.573730,190.279327 
	C859.308899,191.601517 858.825562,191.670181 858.288635,176.694626 
	C857.614197,157.883743 857.886292,139.039963 857.635437,120.211914 
	C857.588196,116.661987 859.171997,115.450996 862.466553,115.602905 
	C864.794189,115.710228 867.131592,115.607964 869.951233,115.598259 
z"/>
<path fill="#000000" opacity="1.000000" stroke="none" 
	d="
M240.440063,186.497192 
	C244.471054,188.903015 248.175140,191.141251 251.901047,193.342590 
	C253.317993,194.179749 254.427704,195.084457 253.327637,196.893906 
	C252.391357,198.433945 251.268326,199.566940 249.265350,198.624023 
	C248.964294,198.482300 248.642593,198.383011 248.346237,198.232971 
	C214.832367,181.265549 178.710434,170.832855 144.087845,156.642242 
	C136.853165,153.677017 129.384445,151.264481 122.228493,148.129517 
	C109.451561,142.532013 95.890877,140.020752 82.365173,137.278687 
	C80.644028,136.929749 78.285164,136.925522 78.189629,134.545364 
	C78.075325,131.697784 79.899780,131.455307 82.541641,131.465744 
	C101.078918,131.539124 118.031143,137.579803 134.972717,144.290939 
	C166.379425,156.732178 197.980789,168.682617 229.520813,180.786057 
	C233.283691,182.230057 236.730728,184.199265 240.440063,186.497192 
z"/>
<path fill="#000000" opacity="1.000000" stroke="none" 
	d="
M203.197754,156.701004 
	C214.263641,161.712952 226.113754,164.053772 235.657059,171.517349 
	C241.293457,175.925415 247.104309,180.109985 252.812180,184.427521 
	C253.868942,185.226852 254.921234,186.085449 255.772705,187.088867 
	C256.760010,188.252319 257.570312,189.734390 256.511261,191.179565 
	C255.208038,192.957977 253.804459,191.580353 252.604767,190.860260 
	C250.896118,189.834702 249.223801,188.719696 247.660583,187.485107 
	C228.133896,172.063354 204.216721,166.101974 181.770828,157.027344 
	C160.015030,148.231689 137.933182,140.237854 116.229614,131.319778 
	C107.141945,127.585625 97.930199,128.739807 88.699364,128.176132 
	C86.098312,128.017303 81.543938,130.120560 81.291237,125.919533 
	C81.002678,121.122398 86.034164,122.506531 89.004372,121.921562 
	C104.417030,118.886093 118.588478,123.822266 132.581497,129.180161 
	C156.053696,138.167618 179.420547,147.430130 203.197754,156.701004 
z"/>
<path fill="#000000" opacity="1.000000" stroke="none" 
	d="
M191.945740,179.957214 
	C211.177612,187.296677 230.047165,194.497543 248.896545,201.690689 
	C247.093842,208.210464 243.656769,207.348450 239.667999,205.842224 
	C200.451065,191.033127 161.207214,176.295273 121.967384,161.546844 
	C108.265556,156.396957 94.558510,151.260773 80.841591,146.151260 
	C78.550407,145.297791 75.990227,144.365463 77.123146,141.377121 
	C78.236725,138.439758 80.791382,140.119919 82.708138,140.624420 
	C115.138947,149.160568 145.668243,163.041214 177.136154,174.286987 
	C181.990845,176.021927 186.769562,177.969437 191.945740,179.957214 
z"/>
<path fill="#000000" opacity="1.000000" stroke="none" 
	d="
M234.630295,167.392990 
	C229.087418,161.867737 222.710098,158.617325 215.733154,155.953690 
	C193.339523,147.404434 171.250534,138.045258 148.770416,129.739029 
	C135.059509,124.672958 120.910400,120.739357 106.829491,116.751274 
	C100.053261,114.832077 93.392067,118.360344 86.596977,118.557693 
	C85.805473,118.580681 85.016151,118.678848 84.009254,118.759514 
	C83.236542,115.089088 84.834526,113.528946 87.951782,112.373604 
	C96.906097,109.054886 105.488319,109.841042 114.723633,112.165169 
	C150.671997,121.211800 185.165207,134.262207 219.250916,148.556976 
	C221.223984,149.384415 223.249161,150.354340 224.869354,151.712219 
	C233.926849,159.303360 242.918060,166.976151 251.811081,174.759109 
	C253.987198,176.663635 256.484711,178.807648 254.238770,183.253281 
	C247.653595,177.938522 241.270905,172.787186 234.630295,167.392990 
z"/>
<path fill="#000000" opacity="1.000000" stroke="none" 
	d="
M153.330139,178.579437 
	C182.781021,189.545975 211.865341,200.379211 241.507156,211.420090 
	C238.158646,215.693832 235.278976,217.043701 230.685043,215.325241 
	C188.278625,199.462357 145.722488,183.995514 103.419914,167.862747 
	C94.799347,164.575150 87.048103,158.998856 78.920044,154.434998 
	C76.663101,153.167725 76.174873,151.288544 77.830742,147.997955 
	C101.968819,160.443848 127.699249,168.847260 153.330139,178.579437 
z"/>
<path fill="#000000" opacity="1.000000" stroke="none" 
	d="
M227.787048,142.209595 
	C235.538742,150.021622 243.060242,157.564224 250.523712,165.163803 
	C252.487076,167.162979 254.369751,169.298141 253.730652,172.639175 
	C251.131378,173.425385 249.968323,171.473251 248.648880,170.219925 
	C241.896179,163.805618 235.137360,157.393127 228.552658,150.808014 
	C223.304840,145.559921 217.281570,141.899734 210.450775,138.828629 
	C176.082733,123.376968 139.370041,115.787910 103.303947,105.997734 
	C100.260948,105.171707 97.775482,106.213188 95.080925,106.906189 
	C92.574776,107.550735 90.261177,109.147278 87.224777,108.536316 
	C86.581490,105.512100 87.511345,103.504951 90.335274,102.118370 
	C95.075508,99.790871 99.567902,98.905388 105.071465,100.385429 
	C132.513107,107.765144 160.107117,114.576118 187.607101,121.742264 
	C196.796860,124.137001 205.503036,127.979401 214.282227,131.556229 
	C219.680161,133.755463 223.523682,137.974869 227.787048,142.209595 
z"/>
<path fill="#000000" opacity="1.000000" stroke="none" 
	d="
M110.258728,175.632202 
	C150.057083,190.187576 189.484589,204.630264 229.477188,219.279938 
	C226.265930,223.646545 223.434601,224.723053 219.082550,223.121750 
	C180.046356,208.758636 140.865433,194.784164 101.930016,180.155304 
	C92.571175,176.638992 85.504135,168.993835 77.772713,162.725891 
	C76.187538,161.440781 76.287094,159.515427 77.625427,157.208359 
	C88.527451,163.103302 97.684990,172.098557 110.258728,175.632202 
z"/>
<path fill="#000000" opacity="1.000000" stroke="none" 
	d="
M148.980545,201.908661 
	C172.093521,210.312485 194.836533,218.590759 218.081680,227.051819 
	C214.969559,231.233627 212.105911,232.515396 207.756973,230.934204 
	C171.940689,217.911880 135.967300,205.312241 100.293365,191.913971 
	C90.151695,188.104996 83.718536,178.838425 76.571327,170.990967 
	C75.455940,169.766296 75.344391,167.943390 76.692848,166.383469 
	C78.972504,166.305466 80.424713,167.913284 81.660477,169.308212 
	C92.222260,181.230423 106.036392,187.326080 120.845871,191.942627 
	C130.213043,194.862656 139.363129,198.479065 148.980545,201.908661 
z"/>
<path fill="#000000" opacity="1.000000" stroke="none" 
	d="
M248.911224,154.947052 
	C250.509949,157.542862 253.070297,159.778168 252.272598,163.416382 
	C249.810593,163.688156 248.974319,161.759735 247.815521,160.536224 
	C239.002853,151.231506 230.015518,142.074158 221.589600,132.428040 
	C216.626770,126.746529 210.738251,123.346672 203.584763,121.616035 
	C170.955002,113.721970 138.326202,105.823479 105.722374,97.823380 
	C100.665451,96.582558 95.741966,95.120567 90.803253,98.738243 
	C90.625870,91.301109 93.313713,89.257759 100.635880,90.904213 
	C110.215294,93.058220 119.785957,95.278465 129.283524,97.763962 
	C155.664246,104.667763 182.322678,110.384491 208.883850,116.513260 
	C213.310455,117.534660 216.777695,119.504959 219.779373,122.902252 
	C228.924744,133.252960 238.255325,143.440033 247.920547,154.040817 
	C248.511139,154.587555 248.705780,154.772964 248.911224,154.947052 
z"/>
<path fill="#000000" opacity="1.000000" stroke="none" 
	d="
M114.212540,208.891357 
	C97.823372,205.900070 87.037834,195.790894 78.055389,183.081863 
	C76.341789,180.657333 74.931435,178.393661 76.100143,175.378860 
	C77.651161,174.594620 78.255028,175.856186 79.012794,176.621704 
	C79.831284,177.448547 80.687416,178.293762 81.281097,179.279190 
	C91.343330,195.980972 109.093277,199.796036 125.574265,205.677551 
	C150.509811,214.576218 175.489532,223.351105 200.442764,232.200394 
	C202.277328,232.850998 204.049515,233.677429 206.218796,234.574295 
	C203.508514,239.280899 200.317139,239.704147 195.945465,238.124725 
	C168.854721,228.337173 141.702576,218.719543 114.212540,208.891357 
z"/>
<path fill="#000000" opacity="1.000000" stroke="none" 
	d="
M249.257355,154.831482 
	C248.705780,154.772964 248.511139,154.587555 248.195038,154.239838 
	C243.544403,146.232666 236.500397,140.418472 231.168610,133.215729 
	C229.886612,131.483871 227.975464,130.150085 226.958389,128.300659 
	C220.148361,115.917618 208.411438,112.857086 195.700684,110.187035 
	C163.517532,103.426521 131.518265,95.790543 99.446342,88.500839 
	C98.039314,88.181046 96.367577,88.349823 95.613518,86.365211 
	C98.129990,84.031441 100.970795,83.834343 104.284302,84.569603 
	C137.062531,91.843025 169.782425,99.419014 202.701645,105.994110 
	C213.147034,108.080406 221.336853,111.670692 227.059799,120.969437 
	C230.160538,126.007591 234.640594,130.196823 238.968262,135.212112 
	C242.301987,139.110550 245.165863,142.565872 248.029739,146.021210 
	C248.508041,148.927811 253.164764,151.078125 249.257355,154.831482 
z"/>
<path fill="#000000" opacity="1.000000" stroke="none" 
	d="
M160.421570,236.654816 
	C138.387650,228.990112 116.273270,222.516281 95.228996,213.535049 
	C84.695595,209.039612 80.325294,196.873199 75.128136,186.755264 
	C74.806175,186.128464 75.223320,185.115280 76.420799,184.439819 
	C79.885345,186.588379 82.142128,190.196899 84.085312,193.594025 
	C89.837982,203.650970 98.617973,208.467621 109.401337,211.976654 
	C137.056335,220.975891 164.372711,231.015488 191.828476,240.627762 
	C192.936844,241.015793 194.028900,241.379745 194.914597,242.619186 
	C192.802750,245.930847 190.124283,247.099030 186.199081,245.678116 
	C177.762558,242.624115 169.259064,239.755020 160.421570,236.654816 
z"/>
<path fill="#000000" opacity="1.000000" stroke="none" 
	d="
M248.349960,145.900848 
	C245.165863,142.565872 242.301987,139.110550 239.260712,135.391937 
	C233.114517,125.072426 225.164200,116.507698 217.946381,107.406723 
	C215.724670,104.605339 211.507446,105.043442 208.136612,104.342636 
	C175.568359,97.571609 142.982910,90.883316 110.402084,84.172783 
	C109.432755,83.973137 108.387131,83.920837 107.775124,82.445503 
	C109.802727,79.540245 112.815331,79.577538 115.894547,80.208122 
	C129.420731,82.978127 142.918137,85.889839 156.453339,88.614296 
	C175.204681,92.388702 193.965179,96.122375 212.757401,99.685402 
	C217.122284,100.512993 220.321198,102.379539 222.930984,106.057510 
	C227.256104,112.152855 232.042984,117.920540 237.131775,124.235939 
	C240.400833,128.397324 243.173447,132.149017 245.946060,135.900726 
	C246.948807,137.597504 248.146790,139.213364 248.893814,141.016113 
	C249.514999,142.515182 251.042877,144.319153 248.349960,145.900848 
z"/>
<path fill="#000000" opacity="1.000000" stroke="none" 
	d="
M151.253281,237.652191 
	C162.411896,241.457397 173.193161,245.162811 184.328506,248.989914 
	C181.996399,253.069351 179.544296,254.064911 175.683304,252.725006 
	C155.431915,245.697037 134.862900,239.502686 114.910713,231.720215 
	C99.191444,225.588806 84.601562,217.094528 76.410095,201.045578 
	C74.760078,197.812820 74.688187,197.849518 75.302658,194.043106 
	C77.079613,193.435516 77.606354,194.932816 78.306648,195.944595 
	C80.388519,198.952454 82.918152,201.795166 84.312340,205.106766 
	C88.296272,214.569763 95.838692,218.835098 105.167427,221.770508 
	C120.537109,226.606827 135.653046,232.249573 151.253281,237.652191 
z"/>
<path fill="#000000" opacity="1.000000" stroke="none" 
	d="
M246.207031,136.023422 
	C243.173447,132.149017 240.400833,128.397324 237.434296,124.417191 
	C232.286682,115.873550 226.027649,108.483528 220.493759,100.579308 
	C219.360703,98.960945 217.595612,98.508247 215.742371,98.147675 
	C185.369293,92.238197 155.003342,86.292122 124.631683,80.375351 
	C122.877487,80.033607 120.956543,80.191444 119.629036,78.175064 
	C122.083267,75.925400 124.911095,75.866592 127.904633,76.423302 
	C150.810440,80.683174 173.716217,84.943184 196.625443,89.184692 
	C202.355652,90.245598 208.071030,91.449661 213.843811,92.197403 
	C218.455322,92.794724 222.025284,94.662796 224.726807,98.814842 
	C224.998062,98.993034 224.978027,98.971268 225.079575,99.305481 
	C227.890045,104.017822 230.288971,108.622704 234.464020,112.324936 
	C237.397064,116.906021 241.010757,120.650299 243.165207,125.365784 
	C244.724945,127.822350 246.411758,130.209518 247.803391,132.757889 
	C248.877258,134.724396 248.587692,135.123795 246.207031,136.023422 
z"/>
<path fill="#000000" opacity="1.000000" stroke="none" 
	d="
M616.913940,108.732277 
	C626.207703,110.523537 630.085205,116.654648 627.260193,125.217148 
	C624.904724,132.356506 620.720215,138.662384 617.090027,145.203476 
	C616.079102,147.024994 614.339294,147.696426 612.390869,146.916550 
	C610.394592,146.117508 610.722473,144.229263 610.909790,142.593964 
	C611.079590,141.112228 611.328979,139.607895 611.797974,138.198273 
	C613.070312,134.374039 613.015808,131.580109 608.840393,129.019592 
	C604.669373,126.461784 603.823792,121.763412 605.309143,116.994789 
	C607.006470,111.545937 610.912048,108.971375 616.913940,108.732277 
z"/>
<path fill="#000000" opacity="1.000000" stroke="none" 
	d="
M243.405136,125.519844 
	C241.010757,120.650299 237.397064,116.906021 234.306732,111.995209 
	C231.149750,107.129539 228.868469,102.469559 224.978027,98.971268 
	C224.978027,98.971268 224.998062,98.993034 225.009552,99.002747 
	C223.489304,94.153557 220.431442,91.439621 215.176315,90.533493 
	C188.497910,85.933388 161.862961,81.081383 135.211456,76.325027 
	C133.636627,76.043983 131.862091,76.217087 130.893005,74.064407 
	C133.310120,72.391212 135.832626,71.810646 138.762787,72.326469 
	C164.612396,76.876984 190.461685,81.431236 216.336853,85.832771 
	C220.398132,86.523613 223.456390,88.258377 226.089630,92.154381 
	C229.027313,95.972870 231.524277,99.313728 233.160782,103.189583 
	C236.776749,108.866074 240.396744,114.540001 244.006516,120.220421 
	C245.315948,122.280991 246.780670,124.281738 246.885147,126.933067 
	C245.165024,128.008408 244.679016,126.126534 243.405136,125.519844 
z"/>
<path fill="#000000" opacity="1.000000" stroke="none" 
	d="
M233.402893,103.351044 
	C231.524277,99.313728 229.027313,95.972870 226.374161,92.367424 
	C224.710434,87.243034 221.301437,85.185631 216.346024,84.379349 
	C192.435837,80.488968 168.566055,76.350197 144.681671,72.301224 
	C143.542557,72.108124 142.308670,72.080238 141.886627,70.377022 
	C144.553802,67.643974 148.014648,68.449982 151.102798,68.942558 
	C173.232101,72.472313 195.319839,76.263184 217.452698,79.769623 
	C221.739990,80.448837 224.803482,82.155403 226.879868,86.017715 
	C229.868729,91.577362 233.154633,96.976624 236.221863,102.495415 
	C236.813629,103.560173 237.884995,104.684547 236.959427,106.198456 
	C235.125626,106.183746 234.917633,104.172142 233.402893,103.351044 
z"/>
<path fill="#000000" opacity="1.000000" stroke="none" 
	d="
M870.569397,196.925934 
	C876.378540,198.410507 879.726868,201.758911 880.159851,207.421402 
	C880.511292,212.017975 878.955994,215.964066 874.904907,218.549744 
	C870.734497,221.211624 865.633240,220.849991 861.882629,217.756165 
	C858.189270,214.709595 856.628845,209.199753 858.163696,204.624359 
	C859.841125,199.623901 863.926453,196.977386 870.569397,196.925934 
z"/>
<path fill="#000000" opacity="1.000000" stroke="none" 
	d="
M219.143234,78.993347 
	C196.600006,75.242081 174.456192,71.589279 151.254044,67.761902 
	C154.008331,64.821358 156.422150,64.543488 158.818695,64.989174 
	C180.019028,68.931816 201.203751,72.958580 222.385757,76.998909 
	C222.948044,77.106163 223.427429,77.648109 224.254684,78.189835 
	C222.680771,79.876564 221.061920,79.247917 219.143234,78.993347 
z"/>
<path fill="#000000" opacity="1.000000" stroke="none" 
	d="
M148.050568,246.968124 
	C156.809021,250.043213 165.213318,252.985672 174.034775,256.074188 
	C171.663956,259.853027 168.984909,261.515137 165.472549,259.714844 
	C157.802567,255.783585 150.292603,251.539505 142.733475,247.393646 
	C142.138626,247.067413 141.837830,246.453110 142.202072,245.566330 
	C144.246826,244.816757 145.848511,246.437912 148.050568,246.968124 
z"/>
</svg>